# xmcd
#
# Track frame offsets: 
#        150
#        11957
#        28412
#        42140
#        61682
#        91860
#        120732
#        131899
#        148281
#        181078
#        192367
#        215953
#        242080
#        277200
#        298906
#
# Disc length: 4407 seconds
#
# Revision: 0
# Processed by: cddbd v1.5.2PL0 Copyright (c) Steve Scherf et al.
# Submitted via: ExactAudioCopyFreeDBPlugin 1.0
#
DISCID=f611350f
DTITLE=久保田 利伸 - 3周まわって素でLive! ～THE HOUSE PARTY!～
DYEAR=2017
DGENRE=R&B
TTITLE0=OPENING JAM [Live]
TTITLE1=Shake It Paradise [Live]
TTITLE2=Funk It Up [Live]
TTITLE3=誓い [Live]
TTITLE4=Forever Yours (with YURI) [Live]
TTITLE5=Tomorrow Waltz [Live]
TTITLE6=Upside Down [Live]
TTITLE7=Free Style [Live]
TTITLE8=LA・LA・LA LOVE SONG [Live]
TTITLE9=SOUL BANGIN' ～B.LEAGUE EARLY CUP VERSION～ [Live]
TTITLE10=Bring me up! [Live]
TTITLE11=SHADOWS OF YOUR LOVE [Live]
TTITLE12=Go Go Old School Medley [Live]
TTITLE13=SUKIYAKI ～Ue wo muite arukou～ (with Ty Stephens) [Live]
TTITLE14=LOVE RAIN ～恋の雨～ [Live]
EXTD=
EXTT0=
EXTT1=
EXTT2=
EXTT3=
EXTT4=
EXTT5=
EXTT6=
EXTT7=
EXTT8=
EXTT9=
EXTT10=
EXTT11=
EXTT12=
EXTT13=
EXTT14=
PLAYORDER=
